<svg height="511pt" viewBox="1 0 511.999 511" width="511pt" xmlns="http://www.w3.org/2000/svg"><path fill="#5956E9" d="m227.71875 275.960938h-44.253906c-5.523438 0-10 4.480468-10 10 0 5.523437 4.476562 10 10 10h44.253906c4.128906 11.640624 15.246094 20 28.28125 20 4.625 0 9.007812-1.050782 12.925781-2.929688l50.269531 50.269531c1.953126 1.953125 4.515626 2.929688 7.074219 2.929688 2.558594 0 5.117188-.976563 7.070313-2.929688 3.902344-3.902343 3.902344-10.234375 0-14.140625l-50.273438-50.273437c1.878906-3.917969 2.933594-8.300781 2.933594-12.925781 0-16.542969-13.457031-30-30-30-13.035156 0-24.152344 8.363281-28.28125 20zm28.28125 0c5.515625 0 10 4.488281 10 10 0 5.515624-4.484375 10-10 10s-10-4.484376-10-10c0-5.511719 4.484375-10 10-10zm0 0"/><path fill="#5956E9" d="m486.210938 51.878906c-16.632813-16.628906-38.742188-25.789062-62.265626-25.789062-23.519531 0-45.632812 9.160156-62.257812 25.785156l-1 1c-1.878906 1.875-2.933594 4.421875-2.933594 7.074219 0 2.652343 1.050782 5.199219 2.929688 7.074219l34.558594 34.5625-16.539063 16.539062c-26.773437-19.628906-58.390625-33.011719-92.703125-37.992188v-19.632812h1.265625c16.542969 0 30-13.457031 30-30s-13.457031-30-30-30h-62.53125c-16.542969 0-30 13.457031-30 30s13.457031 30 30 30h1.265625v19.632812c-34.3125 4.980469-65.929688 18.363282-92.707031 37.992188l-16.539063-16.539062 34.5625-34.5625c1.875-1.875 2.929688-4.421876 2.929688-7.074219 0-2.652344-1.054688-5.199219-2.933594-7.074219l-.996094-.996094c-16.628906-16.628906-38.742187-25.789062-62.261718-25.789062-23.523438 0-45.632813 9.160156-62.265626 25.789062-16.628906 16.632813-25.789062 38.746094-25.789062 62.265625s9.160156 45.632813 25.789062 62.261719l1 1c1.875 1.875 4.417969 2.929688 7.070313 2.929688s5.195313-1.054688 7.074219-2.929688l34.019531-34.019531 16.066406 16.0625c-26.960937 35.078125-43.019531 78.953125-43.019531 126.511719 0 47.664062 16.125 91.621093 43.191406 126.738281l-30.4375 43.15625c-7.757812 10.996093-8.726562 25.25-2.53125 37.195312 6.191406 11.945313 18.398438 19.367188 31.855469 19.367188 11.429687 0 22.269531-5.511719 29-14.75l26.078125-35.78125c32.109375 20.304687 70.125 32.074219 110.84375 32.074219s78.734375-11.769532 110.84375-32.074219l26.074219 35.78125c6.730469 9.238281 17.570312 14.75 29 14.75 13.457031 0 25.664062-7.421875 31.859375-19.367188 6.191406-11.945312 5.222656-26.199219-2.535156-37.199219l-30.433594-43.152343c27.066406-35.113281 43.191406-79.074219 43.191406-126.738281 0-47.558594-16.058594-91.433594-43.019531-126.511719l16.066406-16.0625 34.019531 34.019531c1.875 1.875 4.421875 2.929688 7.074219 2.929688s5.195313-1.054688 7.070313-2.929688l1-1c16.628906-16.632812 25.789062-38.742188 25.789062-62.265625 0-23.519531-9.160156-45.628906-25.789062-62.261719zm-271.476563-21.378906c0-5.515625 4.484375-10 10-10h62.53125c5.511719 0 10 4.484375 10 10 0 5.511719-4.488281 10-10 10h-62.53125c-5.511719 0-10-4.488281-10-10zm31.265625 47.460938v-17.460938h20v17.460938zm-211.757812 77.851562c-20.6875-26.671875-18.789063-65.3125 5.691406-89.789062 12.851562-12.855469 29.941406-19.933594 48.121094-19.933594 15.28125 0 29.796874 5.003906 41.671874 14.238281l-34.183593 34.183594h-.003907zm54.855468-26.570312 13.515625-13.515626 15.050781 15.050782c-4.757812 4.246094-9.316406 8.707031-13.667968 13.367187zm13.820313 356.648437c-2.980469 4.089844-7.777344 6.527344-12.839844 6.527344-6.046875 0-11.316406-3.203125-14.101563-8.570313-2.78125-5.371094-2.363281-11.523437 1.121094-16.464844l27.484375-38.972656c7.476563 7.941406 15.566407 15.296875 24.195313 21.992188zm331.980469-18.511719c3.488281 4.945313 3.90625 11.097656 1.121093 16.46875-2.78125 5.367188-8.054687 8.570313-14.101562 8.570313-5.058594 0-9.855469-2.4375-12.835938-6.527344l-25.863281-35.488281c8.632812-6.695313 16.722656-14.050782 24.199219-21.992188zm-178.898438 6.582032c-103.664062 0-188-84.335938-188-188 0-103.664063 84.335938-188 188-188s188 84.335937 188 188c0 103.664062-84.335938 188-188 188zm152.003906-329.816407c-4.351562-4.660156-8.910156-9.121093-13.667968-13.367187l15.050781-15.050782 13.515625 13.515626zm69.757813 11.671875-95.488281-95.488281c11.875-9.234375 26.390624-14.238281 41.675781-14.238281 18.175781 0 35.265625 7.078125 48.117187 19.933594 12.855469 12.851562 19.933594 29.941406 19.933594 48.121093 0 15.28125-5.003906 29.796875-14.238281 41.671875zm0 0"/><path fill="#5956E9" d="m276.6875 127.296875c-34.148438-4.425781-69.390625 2.398437-99.226562 19.226563-4.8125 2.710937-6.511719 8.8125-3.800782 13.621093 2.710938 4.8125 8.8125 6.511719 13.621094 3.800781 54.472656-30.71875 123.441406-21.25 167.714844 23.023438 54.585937 54.585938 54.585937 143.402344 0 197.988281-26.5 26.5-61.707032 41.082031-99.164063 41.082031-.082031 0-.167969 0-.25 0-37.320312-.066406-72.324219-14.648437-98.554687-41.058593-43.558594-43.859375-53.203125-114.507813-22.925782-167.976563 2.722657-4.804687 1.03125-10.910156-3.773437-13.628906-4.804687-2.722656-10.90625-1.03125-13.628906 3.773438-16.253907 28.703124-22.890625 63.550781-18.6875 98.113281 4.347656 35.769531 20.269531 69.085937 44.824219 93.8125 30.003906 30.210937 70.03125 46.890625 112.710937 46.964843h.285156c42.796875-.003906 83.03125-16.667968 113.304688-46.941406 62.382812-62.382812 62.382812-163.886718 0-226.273437-25.207031-25.207031-57.175781-40.949219-92.449219-45.527344zm0 0"/><path fill="#5956E9" d="m149.929688 189.898438c2.628906 0 5.210937-1.070313 7.070312-2.929688 1.871094-1.859375 2.929688-4.441406 2.929688-7.070312 0-2.628907-1.058594-5.210938-2.929688-7.070313-1.859375-1.859375-4.429688-2.929687-7.070312-2.929687-2.628907 0-5.210938 1.070312-7.070313 2.929687s-2.917969 4.441406-2.917969 7.070313c0 2.628906 1.058594 5.210937 2.917969 7.070312 1.871094 1.859375 4.441406 2.929688 7.070313 2.929688zm0 0"/><path fill="#5956E9" d="m263.070312 180.5c1.859376-1.859375 2.929688-4.441406 2.929688-7.070312 0-2.640626-1.070312-5.210938-2.929688-7.070313-1.859374-1.871094-4.441406-2.929687-7.070312-2.929687s-5.210938 1.058593-7.070312 2.929687c-1.859376 1.859375-2.929688 4.441406-2.929688 7.070313 0 2.628906 1.070312 5.199218 2.929688 7.070312 1.859374 1.859375 4.441406 2.929688 7.070312 2.929688s5.210938-1.070313 7.070312-2.929688zm0 0"/><path fill="#5956E9" d="m248.929688 391.429688c-1.859376 1.859374-2.929688 4.4375-2.929688 7.070312 0 2.628906 1.070312 5.207031 2.929688 7.066406 1.859374 1.859375 4.441406 2.933594 7.070312 2.933594s5.210938-1.070312 7.070312-2.933594c1.859376-1.859375 2.929688-4.4375 2.929688-7.066406 0-2.632812-1.070312-5.210938-2.929688-7.070312-1.859374-1.859376-4.441406-2.929688-7.070312-2.929688s-5.210938 1.070312-7.070312 2.929688zm0 0"/><path fill="#5956E9" d="m375.609375 293.03125c1.859375-1.863281 2.929687-4.441406 2.929687-7.070312 0-2.632813-1.070312-5.203126-2.929687-7.070313-1.859375-1.859375-4.4375-2.929687-7.070313-2.929687-2.640624 0-5.210937 1.070312-7.070312 2.929687-1.867188 1.867187-2.929688 4.4375-2.929688 7.070313 0 2.636718 1.0625 5.207031 2.929688 7.070312 1.859375 1.867188 4.429688 2.929688 7.070312 2.929688 2.632813 0 5.210938-1.0625 7.070313-2.929688zm0 0"/><path fill="#5956E9" d="m136.390625 293.039062c1.859375 1.859376 4.4375 2.921876 7.070313 2.921876 2.640624 0 5.210937-1.0625 7.066406-2.921876 1.871094-1.871093 2.933594-4.441406 2.933594-7.078124 0-2.632813-1.0625-5.210938-2.933594-7.070313-1.855469-1.859375-4.429688-2.929687-7.066406-2.929687-2.632813 0-5.210938 1.070312-7.070313 2.929687s-2.929687 4.4375-2.929687 7.070313c0 2.636718 1.066406 5.207031 2.929687 7.078124zm0 0"/></svg>