<svg id="Layer_1" enable-background="new 0 0 512 512" viewBox="0 0 512 512" xmlns="http://www.w3.org/2000/svg"><path fill="#fff" d="m116.39 177.47h13.91c9.18 0 16.65-7.47 16.65-16.65v-29.77c0-9.18-7.47-16.65-16.65-16.65h-13.91c-9.18 0-16.65 7.47-16.65 16.65v29.77c0 9.19 7.47 16.65 16.65 16.65zm-4.65-46.41c0-2.56 2.08-4.65 4.65-4.65h13.91c2.56 0 4.65 2.08 4.65 4.65v29.77c0 2.56-2.08 4.65-4.65 4.65h-13.91c-2.56 0-4.65-2.08-4.65-4.65zm68.14 46.41h13.91c9.18 0 16.65-7.47 16.65-16.65v-29.77c0-9.18-7.47-16.65-16.65-16.65h-13.91c-9.18 0-16.65 7.47-16.65 16.65v29.77c0 9.19 7.47 16.65 16.65 16.65zm-4.65-46.41c0-2.56 2.08-4.65 4.65-4.65h13.91c2.56 0 4.65 2.08 4.65 4.65v29.77c0 2.56-2.08 4.65-4.65 4.65h-13.91c-2.56 0-4.65-2.08-4.65-4.65zm68.13 46.41h13.91c9.18 0 16.65-7.47 16.65-16.65v-29.77c0-9.18-7.47-16.65-16.65-16.65h-13.91c-9.18 0-16.65 7.47-16.65 16.65v29.77c.01 9.19 7.48 16.65 16.65 16.65zm-4.64-46.41c0-2.56 2.08-4.65 4.65-4.65h13.91c2.56 0 4.65 2.08 4.65 4.65v29.77c0 2.56-2.08 4.65-4.65 4.65h-13.91c-2.56 0-4.65-2.08-4.65-4.65zm-91.77 123.27v-29.77c0-9.18-7.47-16.65-16.65-16.65h-13.91c-9.18 0-16.65 7.47-16.65 16.65v29.77c0 9.18 7.47 16.65 16.65 16.65h13.91c9.18 0 16.65-7.47 16.65-16.65zm-35.21 0v-29.77c0-2.56 2.08-4.65 4.65-4.65h13.91c2.56 0 4.65 2.08 4.65 4.65v29.77c0 2.56-2.08 4.65-4.65 4.65h-13.91c-2.56 0-4.65-2.08-4.65-4.65zm68.14 16.65h13.91c9.18 0 16.65-7.47 16.65-16.65v-29.77c0-9.18-7.47-16.65-16.65-16.65h-13.91c-9.18 0-16.65 7.47-16.65 16.65v29.77c0 9.18 7.47 16.65 16.65 16.65zm-4.65-46.42c0-2.56 2.08-4.65 4.65-4.65h13.91c2.56 0 4.65 2.08 4.65 4.65v29.77c0 2.56-2.08 4.65-4.65 4.65h-13.91c-2.56 0-4.65-2.08-4.65-4.65zm68.13 46.42h13.91c9.18 0 16.65-7.47 16.65-16.65v-29.77c0-9.18-7.47-16.65-16.65-16.65h-13.91c-9.18 0-16.65 7.47-16.65 16.65v29.77c.01 9.18 7.48 16.65 16.65 16.65zm-4.64-46.42c0-2.56 2.08-4.65 4.65-4.65h13.91c2.56 0 4.65 2.08 4.65 4.65v29.77c0 2.56-2.08 4.65-4.65 4.65h-13.91c-2.56 0-4.65-2.08-4.65-4.65zm252.28 232.99h-22.97c.97-2.32 1.51-4.86 1.51-7.53v-110.93c0-10.77-8.76-19.53-19.53-19.53h-28.91v-19.21c0-9.14-7.57-16.58-16.87-16.58h-72.79c-9.3 0-16.86 7.44-16.86 16.58v19.21h-7.58v-222.11h11.26c3.31 0 6-2.69 6-6v-43c0-3.31-2.69-6-6-6h-262.85c-3.31 0-6 2.69-6 6v43c0 3.31 2.69 6 6 6h11.26v258.05c-13.68 5.18-21.85 22.82-23.79 38.61-1.36 11.04.52 20.82 5.27 27.56 3.12 4.43 8.77 9.55 18.52 11.07v24.8h-45.67c-3.31 0-6 2.69-6 6s2.69 6 6 6h470c3.31 0 6-2.69 6-6s-2.69-5.99-6-5.99zm-33.45-118.46v25.15c0 2.92-1.45 6.33-4.64 6.91l-62.1 11.31v-11.66c0-5.05-4.11-9.16-9.16-9.16h-27.62c-5.05 0-9.16 4.11-9.16 9.16v11.66l-62.1-11.31c-3.19-.58-4.64-3.99-4.64-6.91v-25.15c0-4.15 3.38-7.53 7.53-7.53h164.36c4.15 0 7.53 3.38 7.53 7.53zm-78.74 34.55v26.35c0 6.05-4.92 10.96-10.97 10.96s-10.96-4.92-10.96-10.96v-26.35zm11.43-54.08h-44.79v-6.02h44.79zm-63.66-19.21c0-2.48 2.23-4.58 4.86-4.58h72.79c2.64 0 4.87 2.1 4.87 4.58v19.21h-6.87v-12.02c0-3.31-2.69-6-6-6h-56.79c-3.31 0-6 2.69-6 6v12.02h-6.87v-19.21zm-265.17-245.9h250.84v31h-250.84zm-3.45 360.31c-2.99-4.24-4.14-11.23-3.17-19.18 1.62-13.17 8.7-27.48 17.88-29.37 9.18 1.89 16.26 16.2 17.88 29.37.98 7.95-.18 14.95-3.17 19.18-3.02 4.28-7.95 6.45-14.65 6.45-.02 0-.05 0-.07 0s-.03 0-.05 0c-6.7-.01-11.63-2.17-14.65-6.45zm20.71 17.99c9.74-1.52 15.39-6.64 18.52-11.07 4.76-6.74 6.63-16.53 5.27-27.56-1.94-15.8-10.11-33.44-23.79-38.61v-258.06h216.33v222.11h-9.33c-10.77 0-19.53 8.76-19.53 19.53v110.93c0 2.67.54 5.21 1.51 7.53h-26.58v-134.2h5.97c3.31 0 6-2.69 6-6s-2.69-6-6-6h-120.41c-3.31 0-6 2.69-6 6s2.69 6 6 6h5.97v134.2h-53.93zm102.16-109.4v61.1h-7.23c-3.31 0-6 2.69-6 6s2.69 6 6 6h7.23v61.1h-36.24v-134.2zm12 73.1h7.23c3.31 0 6-2.69 6-6s-2.69-6-6-6h-7.23v-61.1h36.24v134.2h-36.24zm92.84 61.1c-4.15 0-7.53-3.38-7.53-7.53v-67.74c.8.28 1.63.51 2.49.67l64.25 11.71v5.33c0 12.66 10.3 22.96 22.96 22.96s22.97-10.3 22.97-22.96v-5.33l64.25-11.71c.86-.16 1.68-.39 2.49-.67v67.74c0 4.15-3.38 7.53-7.53 7.53zm76.17-60.82c0-3.31 2.69-6 6-6 3.31 0 6 2.69 6 6s-2.69 6-6 6-6-2.69-6-6z"/></svg>