<svg id="Layer_1" viewBox="0 0 64 64" xmlns="http://www.w3.org/2000/svg" data-name="Layer 1"><path fill="#5956E9" d="m32 8.922a12.591 12.591 0 1 0 12.591 12.591 12.606 12.606 0 0 0 -12.591-12.591zm0 23.178a10.591 10.591 0 1 1 10.591-10.587 10.6 10.6 0 0 1 -10.591 10.587z"/><path fill="#5956E9" d="m32 12.545a8.968 8.968 0 1 0 8.968 8.968 8.978 8.978 0 0 0 -8.968-8.968zm0 15.935a6.968 6.968 0 1 1 6.968-6.967 6.975 6.975 0 0 1 -6.968 6.967z"/><path fill="#5956E9" d="m17.48 9.584a1 1 0 0 0 -1 1v.234a1 1 0 1 0 2 0v-.234a1 1 0 0 0 -1-1z"/><path fill="#5956E9" d="m17.48 12.545a1 1 0 0 0 -1 1v2.416a1 1 0 1 0 2 0v-2.416a1 1 0 0 0 -1-1z"/><path fill="#5956E9" d="m27.48 62h9.04a1 1 0 0 0 1-1v-14.92h6.92a1 1 0 0 0 1-1v-4.05h.1a5.988 5.988 0 0 0 5.97-5.98v-27.07a5.981 5.981 0 0 0 -5.97-5.98h-27.08a5.981 5.981 0 0 0 -5.97 5.98v27.07a5.988 5.988 0 0 0 5.97 5.98h.95v4.05a1 1 0 0 0 1 1h6.07v14.92a1 1 0 0 0 1 1zm8.04-2h-7.04v-13.92h7.04zm-17.06-20.97a3.982 3.982 0 0 1 -3.97-3.98v-27.07a3.975 3.975 0 0 1 3.97-3.98h27.08a3.975 3.975 0 0 1 3.97 3.98v27.07a3.982 3.982 0 0 1 -3.97 3.98z"/></svg>