<?xml version="1.0"?>
<svg xmlns="http://www.w3.org/2000/svg" data-name="Layer 1" id="Layer_1" viewBox="0 0 128 128"><title/><path fill="#fff" d="M76,106.9989H72a2,2,0,0,0,0,4h4a2,2,0,0,0,0-4Z"/><path fill="#fff" d="M57,101.999a6.99994,6.99994,0,1,0,7,6.99994A7.00793,7.00793,0,0,0,57,101.999Zm0,9.99988a3,3,0,1,1,3-2.99994A2.99994,2.99994,0,0,1,57,111.99884Z"/><path fill="#fff" d="M123.1377,84.1427a11.037,11.037,0,0,0-9.1123-9.58289l-28.666-5.62787a2.44891,2.44891,0,0,1-1.91418-1.788c-.43524.34045-.88245.66254-1.33148.98138-.67554.47852-1.36108.94061-2.068,1.36536L73.51563,85.21008l-5.11853,6.25629.27966.53271h4.45288l3.66821-4.4834a1.97817,1.97817,0,0,0,.29883-.499l6.06891-14.61029a6.592,6.592,0,0,0,1.4223.45123l4.09393.80347L81.4248,95.999h-15.166L64.252,92.17584a4.09457,4.09457,0,0,0-3.64941-2.17676h-7.9043a4.09814,4.09814,0,0,0-3.64941,2.17578L47.041,95.999H46.5752L39.3183,73.66138l4.09381-.80371a6.611,6.611,0,0,0,1.42224-.45135l5.76184,13.871a8.2269,8.2269,0,0,1,2.10205-.27814h2.4317l-.64557-.78906L47.95428,69.49066c-.70618-.42432-1.39087-.88593-2.06573-1.36389-.44751-.31763-.89325-.63831-1.327-.97748a2.43114,2.43114,0,0,1-1.9209,1.78265L14.04,74.54907A11.05646,11.05646,0,0,0,4.8623,84.1427L.01367,125.76727a1.99977,1.99977,0,1,0,3.97266.46289L8.835,84.60559a7.0641,7.0641,0,0,1,5.91113-6.12006l20.618-4.04785L42.63641,96.822A3.95157,3.95157,0,0,0,41,99.999v19.99982a4.05489,4.05489,0,0,0,4.09961,4H82.90039a4.05489,4.05489,0,0,0,4.09961-4V99.999a3.95157,3.95157,0,0,0-1.63641-3.177L92.636,74.43713l20.68329,4.05914a7.04385,7.04385,0,0,1,5.8457,6.10931l4.84863,41.62457a1.99919,1.99919,0,0,0,1.9834,1.76855,2.02185,2.02185,0,0,0,1.98926-2.23145Zm-40.2373,35.85608H45.09961a.37562.37562,0,0,1-.0957-.01758l-.00391.001L44.99023,100.038a.13539.13539,0,0,1,.10938-.03906H48.25a1.99857,1.99857,0,0,0,1.77051-1.07025l2.56836-4.8916a.14574.14574,0,0,1,.10938-.03809h7.9043a.15412.15412,0,0,1,.10742.03516l2.56934,4.89453A1.99857,1.99857,0,0,0,65.0498,99.999H82.90039a.33019.33019,0,0,1,.09961.0166l.00977,19.94415A.13539.13539,0,0,1,82.90039,119.99878Z"/><path fill="#fff" d="M9.7041,59.99939H37.66266a38.459,38.459,0,0,1-2.55511-3.99994H9.7041A5.37826,5.37826,0,1,1,9.704,45.2627c1.12756,0,2.25177-.01636,2.732-1.2384a4.73846,4.73846,0,0,0,.0376-1.867,5.5499,5.5499,0,0,1,5.7041-5.3681,6.00315,6.00315,0,0,1,1.9834.334,2.006,2.006,0,0,0,.37854.09039,9.77728,9.77728,0,0,1-.34625-5.13861,9.23625,9.23625,0,0,0-.53522.82312,10.09537,10.09537,0,0,0-1.48047-.10889,9.59014,9.59014,0,0,0-9.667,8.54388A9.35552,9.35552,0,0,0,9.7041,59.99939Z"/><path fill="#fff" d="M64,65.99933c-11.93573,0-22.01135-9.33069-25.05389-21.99976H34.84668C38.03027,58.89813,49.88953,69.99927,64,69.99927S89.96973,58.89813,93.15332,43.99957H89.05389C86.01135,56.66864,75.93573,65.99933,64,65.99933Z"/><path fill="#fff" d="M93.72107,9.02026a1.9996,1.9996,0,0,0,1.00745-1.18591,5.807,5.807,0,0,1,10.95605.09277,1.99964,1.99964,0,0,0,2.665,1.29248,5.99124,5.99124,0,0,1,2.24316-.43018,5.54969,5.54969,0,0,1,5.70313,5.3681,5.13349,5.13349,0,0,1-.0625.79346,1.99923,1.99923,0,0,0,.52832,1.69678,1.97489,1.97489,0,0,0,1.5625.61523A5.54831,5.54831,0,0,1,124,22.6311a5.55,5.55,0,0,1-5.7041,5.36859H105.98151a9.9232,9.9232,0,0,1,1.80878,4H118.2959A9.5517,9.5517,0,0,0,128,22.6311a9.47161,9.47161,0,0,0-7.73047-9.17322,9.58486,9.58486,0,0,0-9.67676-8.6684,10.08086,10.08086,0,0,0-1.84082.168A9.79756,9.79756,0,0,0,100.19238,0,9.68966,9.68966,0,0,0,91.6582,4.89838a10.09537,10.09537,0,0,0-1.48047-.10889c-.1297,0-.256.01294-.38446.01782A34.28551,34.28551,0,0,1,93.72107,9.02026Z"/><path fill="#fff" d="M30,39.99957H98a5.99994,5.99994,0,1,0,0-11.99988H96.9259A30.03368,30.03368,0,0,0,67,0H61A30.03368,30.03368,0,0,0,31.0741,27.99969H30a5.99994,5.99994,0,1,0,0,11.99988ZM61,3.99994h6A26.02867,26.02867,0,0,1,92.91547,27.99969H35.08453A26.02867,26.02867,0,0,1,61,3.99994ZM30,31.99969H98a2,2,0,1,1,0,3.99994H30a2,2,0,1,1,0-3.99994Z"/></svg>
