<svg id="Line" enable-background="new 0 0 32 32" viewBox="0 0 32 32" xmlns="http://www.w3.org/2000/svg"><path fill="#5956E9" d="m30.707 17.293-4.822-4.821c.699-.981 1.115-2.177 1.115-3.471 0-3.309-2.691-6-6-6s-6 2.691-6 6 2.691 6 6 6c1.294 0 2.49-.416 3.471-1.115l4.822 4.821c.195.195.451.293.707.293s.512-.098.707-.293c.391-.391.391-1.023 0-1.414zm-13.707-8.292c0-2.206 1.794-4 4-4s4 1.794 4 4-1.794 4-4 4-4-1.794-4-4z"/><path fill="#5956E9" d="m16 21h-4c-.553 0-1-.447-1-1s.447-1 1-1h4c.553 0 1 .447 1 1s-.447 1-1 1z"/><path fill="#5956E9" d="m8 21h-1c-.553 0-1-.447-1-1s.447-1 1-1h1c.553 0 1 .447 1 1s-.447 1-1 1z"/><path fill="#5956E9" d="m21 21h-1c-.553 0-1-.447-1-1s.447-1 1-1h1c.553 0 1 .447 1 1s-.447 1-1 1z"/><path fill="#5956E9" d="m25.914 18.594-1.13-2.54c-.225-.504-.815-.733-1.32-.507-.505.224-.731.815-.508 1.32l1.044 2.345v3.788h-20v-3.788l.983-2.212h12.157c.553 0 1-.448 1-1s-.447-1-1-1h-11.268l1.512-3.403c.161-.363.52-.597.916-.597h4.76c.553 0 1-.448 1-1s-.447-1-1-1h-4.76c-1.185 0-2.262.7-2.744 1.784l-.985 2.216h-1.571c-.553 0-1 .448-1 1s.447 1 1 1h.683l-1.597 3.594c-.057.128-.086.266-.086.406v8c0 1.103.897 2 2 2h3c1.103 0 2-.897 2-2v-2h10v2c0 1.103.897 2 2 2h3c1.103 0 2-.897 2-2v-8c0-.14-.029-.278-.086-.406zm-18.912 8.406h-3.002v-2h3.001zm13.998 0v-2h3.001l.001 2z"/></svg>