<svg id="Layer_1" viewBox="0 0 512 512" xmlns="http://www.w3.org/2000/svg" data-name="Layer 1"><path fill="#fff" d="m144.715 256.642h-70.3a7 7 0 0 1 0-14h70.3a7 7 0 0 1 0 14zm-38.664-80.615h51.136a7 7 0 0 0 0-14h-51.136a7 7 0 0 0 0 14zm32.456 106.919h-78.546a7 7 0 0 0 0 14h78.546a7 7 0 0 0 0-14zm359.393-141.416v142.692a12.771 12.771 0 0 1 -12.756 12.756h-142.69a12.77 12.77 0 0 1 -12.754-12.756v-24.172l-37.749-7.118a29.532 29.532 0 0 1 -18.96-11.975l-.809-1.144-8.936 79.341 50.079 36.218a29.324 29.324 0 0 1 11.475 15.9l31.577 103.056a29.331 29.331 0 1 1 -56.268 16.589l-28.74-93.517-60.937-44.065-5.254 23.573c-.015.07-.032.139-.049.208a29.065 29.065 0 0 1 -12.166 17.093 6.98 6.98 0 0 1 -1.093.59l-118.195 50.813a29.348 29.348 0 0 1 -31.937-49.243 7.075 7.075 0 0 1 1.2-.64l107.988-44.78 27.865-180.5a57.521 57.521 0 0 1 63.194-50.621c25.9 2.764 45.807 35.223 61.8 61.3 3.639 5.932 7.1 11.582 10.277 16.268l15.635 2.951v-58.817a12.77 12.77 0 0 1 12.755-12.755h142.694a12.77 12.77 0 0 1 12.754 12.755zm-96.347 32.584 7.507-6.9a7 7 0 0 1 9.472 0l7.54 6.92v-31.356h-24.517zm-107.067 65.047 43.223 8.15c.207.03.411.068.612.116l32.529 6.133a15.326 15.326 0 0 0 17.9-12.264 15.355 15.355 0 0 0 -12.239-17.854l-67.866-12.813a7 7 0 0 1 -4.416-2.834c-3.858-5.451-8-12.2-12.376-19.339-13.633-22.227-32.3-52.669-51.362-54.7a43.49 43.49 0 0 0 -47.8 38.4c-.011.1-.024.2-.039.295l-28.488 184.53a7 7 0 0 1 -4.237 5.4l-110.936 46a15.345 15.345 0 0 0 17.494 25.208 7.144 7.144 0 0 1 1.115-.6l118.111-50.789a15.077 15.077 0 0 0 5.825-8.458l7.544-33.842a7 7 0 0 1 10.936-4.15l71.459 51.674a7 7 0 0 1 2.59 3.618l29.451 95.836a15.4 15.4 0 0 0 19.036 10.5 15.329 15.329 0 0 0 10.414-19.026l-31.584-103.074a15.351 15.351 0 0 0 -6.047-8.406l-.148-.1-53.46-38.663a7 7 0 0 1 -2.854-6.457l11.181-99.276-15.924-26.059a7 7 0 1 1 11.948-7.3l16.981 27.783 11.362 16.071a15.438 15.438 0 0 0 9.941 6.268zm189.414-96.383h-43.823v47.28a7 7 0 0 1 -11.735 5.159l-14.542-13.341-14.512 13.337a7 7 0 0 1 -11.739-5.155v-47.28h-43.849v60.222l35.4 6.683a29.324 29.324 0 0 1 11.114 53.04 29.08 29.08 0 0 1 -21.964 4.6l-24.55-4.633v20.284h140.2zm-52.78 103.291a7 7 0 0 0 7 7h29.65a7 7 0 0 0 0-14h-29.649a7 7 0 0 0 -7.002 7zm-381.562 10.573a7 7 0 1 0 0-14h-18.058a7 7 0 0 0 0 14zm108.394-47.309a7 7 0 0 0 -7-7h-27.808a7 7 0 1 0 0 14h27.807a7 7 0 0 0 7.001-7zm-52.666 0a7 7 0 0 0 -7-7h-77.186a7 7 0 1 0 0 14h77.185a7 7 0 0 0 7.001-7zm362.484 51.645h-29.649a7 7 0 1 0 0 14h29.649a7 7 0 0 0 0-14zm-407.809-84.951h21.231a7 7 0 1 0 0-14h-21.231a7 7 0 0 0 0 14zm132.176-119.307a56.809 56.809 0 0 1 1.125-11.256q.058-.342.147-.672a56.681 56.681 0 0 1 109.475-5.165h29.536a7 7 0 0 1 0 14h-26.987c.055 1.024.087 2.053.087 3.09a56.692 56.692 0 1 1 -113.383 0zm17.581-17.093h78.221a42.66 42.66 0 0 0 -78.221 0zm-3.578 17.093a42.689 42.689 0 0 0 85.377 0c0-1.04-.05-2.068-.124-3.09h-85.129c-.074 1.022-.124 2.05-.124 3.09z"/></svg>