<svg viewBox="0 0 274 108" fill="none" xmlns="http://www.w3.org/2000/svg">
<path d="M115 8.13501C115 8.13501 194.44 -10.1688 229.023 8.13501C271.659 30.7013 271.659 77.2987 229.023 99.865C194.44 118.169 115 99.865 115 99.865V8.13501Z" fill="#4F46E5"/>
<path d="M18.7581 60.7261C18.7581 62.2788 18.3818 63.6285 17.6294 64.7751C16.8769 65.9217 15.778 66.8056 14.3328 67.4267C12.8995 68.0478 11.1557 68.3583 9.10133 68.3583C8.19359 68.3583 7.30376 68.2986 6.43185 68.1792C5.57188 68.0597 4.74177 67.8865 3.94152 67.6596C3.15322 67.4207 2.40075 67.1281 1.68411 66.7817V61.6219C2.92628 62.1713 4.21623 62.667 5.55396 63.1089C6.89169 63.5509 8.21748 63.7718 9.53132 63.7718C10.4391 63.7718 11.1676 63.6524 11.7171 63.4135C12.2784 63.1746 12.6845 62.8462 12.9354 62.4281C13.1862 62.0101 13.3116 61.5323 13.3116 60.9948C13.3116 60.3379 13.0906 59.7766 12.6487 59.3107C12.2068 58.8449 11.5976 58.409 10.8213 58.0029C10.0569 57.5968 9.19091 57.1608 8.22345 56.695C7.6143 56.4083 6.95141 56.062 6.23477 55.6559C5.51813 55.2378 4.83732 54.7302 4.19235 54.133C3.54737 53.5358 3.01586 52.8132 2.59782 51.9652C2.19173 51.1052 1.98868 50.078 1.98868 48.8836C1.98868 47.319 2.347 45.9812 3.06364 44.8704C3.78028 43.7596 4.80149 42.9116 6.12728 42.3264C7.465 41.7292 9.04161 41.4306 10.8571 41.4306C12.2187 41.4306 13.5146 41.5918 14.7449 41.9143C15.9871 42.2248 17.283 42.6787 18.6327 43.2759L16.8411 47.5937C15.6347 47.104 14.5538 46.7277 13.5983 46.465C12.6427 46.1902 11.6693 46.0529 10.6779 46.0529C9.98519 46.0529 9.39396 46.1664 8.90426 46.3933C8.41455 46.6083 8.04429 46.9188 7.79346 47.3249C7.54264 47.7191 7.41723 48.1789 7.41723 48.7045C7.41723 49.3255 7.59639 49.8511 7.95471 50.2811C8.32497 50.6991 8.8744 51.1052 9.60298 51.4994C10.3435 51.8935 11.2632 52.3534 12.362 52.8789C13.6998 53.5119 14.8404 54.1748 15.784 54.8676C16.7395 55.5484 17.4741 56.3546 17.9877 57.2862C18.5013 58.2059 18.7581 59.3525 18.7581 60.7261ZM46.3549 47.5937C48.6243 47.5937 50.3383 48.1789 51.4968 49.3494C52.6673 50.508 53.2526 52.3713 53.2526 54.9392V68H47.7703V56.3008C47.7703 54.8676 47.5254 53.7866 47.0357 53.058C46.546 52.3295 45.7876 51.9652 44.7604 51.9652C43.3152 51.9652 42.288 52.4847 41.6789 53.5239C41.0697 54.551 40.7651 56.0261 40.7651 57.9491V68H35.3008V56.3008C35.3008 55.3453 35.1933 54.5451 34.9783 53.9001C34.7633 53.2551 34.4348 52.7714 33.9929 52.4489C33.551 52.1264 32.9836 51.9652 32.2909 51.9652C31.2756 51.9652 30.4754 52.222 29.8901 52.7356C29.3168 53.2372 28.9047 53.9837 28.6539 54.9751C28.415 55.9545 28.2956 57.1548 28.2956 58.5762V68H22.8312V47.9699H27.0056L27.7402 50.5319H28.0448C28.4509 49.8391 28.9585 49.2778 29.5676 48.8478C30.1887 48.4178 30.8695 48.1013 31.6101 47.8982C32.3506 47.6952 33.1031 47.5937 33.8675 47.5937C35.3366 47.5937 36.5788 47.8325 37.594 48.3103C38.6212 48.7881 39.4095 49.5286 39.9589 50.5319H40.4426C41.0398 49.5047 41.8819 48.7582 42.9688 48.2924C44.0677 47.8266 45.1964 47.5937 46.3549 47.5937ZM66.8391 47.5578C69.5265 47.5578 71.5869 48.1431 73.0202 49.3136C74.4534 50.4841 75.1701 52.2638 75.1701 54.6526V68H71.354L70.2969 65.2768H70.1536C69.5803 65.9934 68.995 66.5787 68.3978 67.0325C67.8006 67.4864 67.1139 67.8208 66.3375 68.0358C65.5611 68.2508 64.6176 68.3583 63.5068 68.3583C62.3243 68.3583 61.2613 68.1314 60.3177 67.6775C59.3861 67.2236 58.6515 66.5309 58.114 65.5993C57.5766 64.6557 57.3078 63.4613 57.3078 62.0161C57.3078 59.89 58.0543 58.3254 59.5473 57.3221C61.0403 56.3068 63.2798 55.7454 66.2658 55.638L69.7415 55.5305V54.6526C69.7415 53.6015 69.4668 52.8311 68.9174 52.3414C68.368 51.8517 67.6036 51.6069 66.6242 51.6069C65.6567 51.6069 64.7071 51.7442 63.7755 52.0189C62.8439 52.2936 61.9122 52.64 60.9806 53.058L59.1711 49.3673C60.2341 48.806 61.4225 48.3641 62.7364 48.0416C64.0622 47.7191 65.4297 47.5578 66.8391 47.5578ZM69.7415 58.7195L67.6274 58.7912C65.8597 58.8389 64.6295 59.1555 63.9367 59.7407C63.2559 60.326 62.9155 61.0964 62.9155 62.0519C62.9155 62.888 63.1604 63.4852 63.6501 63.8435C64.1398 64.1899 64.7788 64.363 65.5671 64.363C66.7376 64.363 67.723 64.0167 68.5232 63.3239C69.3354 62.6312 69.7415 61.6458 69.7415 60.3678V58.7195ZM91.7486 47.5937C92.0233 47.5937 92.3398 47.6116 92.6982 47.6474C93.0684 47.6713 93.367 47.7071 93.594 47.7549L93.1819 52.8789C93.0027 52.8192 92.7459 52.7774 92.4115 52.7535C92.089 52.7176 91.8083 52.6997 91.5694 52.6997C90.8647 52.6997 90.178 52.7893 89.5091 52.9685C88.8522 53.1476 88.261 53.4403 87.7354 53.8464C87.2099 54.2405 86.7918 54.766 86.4813 55.423C86.1827 56.0679 86.0334 56.8622 86.0334 57.8058V68H80.569V47.9699H84.7076L85.5138 51.3381H85.7826C86.1767 50.6573 86.6664 50.0362 87.2517 49.4748C87.8489 48.9015 88.5237 48.4477 89.2762 48.1132C90.0406 47.7669 90.8647 47.5937 91.7486 47.5937ZM105.425 64.0047C106.022 64.0047 106.601 63.945 107.163 63.8256C107.736 63.7061 108.303 63.5568 108.865 63.3777V67.4446C108.279 67.7074 107.551 67.9224 106.679 68.0896C105.819 68.2687 104.875 68.3583 103.848 68.3583C102.654 68.3583 101.579 68.1672 100.623 67.785C99.6797 67.3909 98.9332 66.716 98.3837 65.7605C97.8463 64.793 97.5775 63.4493 97.5775 61.7294V52.0727H94.9618V49.7615L97.9717 47.9341L99.5483 43.7059H103.042V47.9699H108.65V52.0727H103.042V61.7294C103.042 62.4938 103.257 63.0671 103.687 63.4493C104.129 63.8196 104.708 64.0047 105.425 64.0047Z" fill="#4F46E5"/>
<path d="M130.161 41.8068C133.541 41.8068 136.008 42.4995 137.561 43.885C139.113 45.2706 139.89 47.2115 139.89 49.7078C139.89 50.8424 139.71 51.9234 139.352 52.9506C139.006 53.9658 138.432 54.8676 137.632 55.6559C136.832 56.4322 135.775 57.0473 134.461 57.5012C133.159 57.9551 131.553 58.182 129.642 58.182H126.847V68H122.547V41.8068H130.161ZM129.875 45.3721H126.847V54.5988H129.194C130.543 54.5988 131.69 54.4436 132.634 54.133C133.577 53.8105 134.294 53.3029 134.784 52.6101C135.273 51.9174 135.518 51.0037 135.518 49.869C135.518 48.3521 135.058 47.2234 134.139 46.4829C133.231 45.7423 131.81 45.3721 129.875 45.3721ZM152.222 47.7907C154.73 47.7907 156.623 48.3461 157.901 49.4569C159.191 50.5677 159.836 52.2996 159.836 54.6526V68H156.844L156.038 65.1872H155.895C155.333 65.9038 154.754 66.4951 154.157 66.9609C153.56 67.4267 152.867 67.7731 152.079 68C151.302 68.2389 150.353 68.3583 149.23 68.3583C148.048 68.3583 146.991 68.1433 146.059 67.7133C145.127 67.2714 144.393 66.6026 143.855 65.7068C143.318 64.811 143.049 63.6763 143.049 62.3027C143.049 60.2603 143.808 58.7255 145.324 57.6983C146.853 56.6711 149.158 56.1038 152.24 55.9963L155.68 55.8709V54.8317C155.68 53.4582 155.357 52.4788 154.712 51.8935C154.079 51.3083 153.184 51.0156 152.025 51.0156C151.034 51.0156 150.072 51.1589 149.141 51.4456C148.209 51.7323 147.301 52.0846 146.417 52.5027L145.056 49.5286C146.023 49.015 147.122 48.597 148.352 48.2745C149.594 47.952 150.884 47.7907 152.222 47.7907ZM155.662 58.5224L153.1 58.612C150.998 58.6837 149.523 59.042 148.675 59.687C147.827 60.3319 147.403 61.2158 147.403 62.3385C147.403 63.3179 147.695 64.0346 148.281 64.4885C148.866 64.9304 149.636 65.1514 150.592 65.1514C152.049 65.1514 153.255 64.7393 154.211 63.9151C155.178 63.0791 155.662 61.8548 155.662 60.2424V58.5224ZM175.537 47.7907C175.871 47.7907 176.236 47.8087 176.63 47.8445C177.024 47.8803 177.364 47.9281 177.651 47.9878L177.257 51.9293C177.006 51.8577 176.696 51.8039 176.325 51.7681C175.967 51.7323 175.645 51.7143 175.358 51.7143C174.605 51.7143 173.889 51.8398 173.208 52.0906C172.527 52.3295 171.924 52.6997 171.398 53.2014C170.873 53.6911 170.461 54.3062 170.162 55.0467C169.864 55.7873 169.714 56.6472 169.714 57.6266V68H165.486V48.167H168.783L169.356 51.6606H169.553C169.947 50.9559 170.437 50.3109 171.022 49.7257C171.607 49.1404 172.276 48.6746 173.029 48.3282C173.793 47.9699 174.629 47.7907 175.537 47.7907ZM185.29 40.1227V53.5955C185.29 54.2047 185.266 54.8735 185.218 55.6021C185.17 56.3188 185.122 56.9936 185.075 57.6266H185.164C185.475 57.2086 185.845 56.7189 186.275 56.1575C186.717 55.5961 187.135 55.1064 187.529 54.6884L193.585 48.167H198.422L190.485 56.695L198.942 68H193.997L187.654 59.2928L185.29 61.3173V68H181.079V40.1227H185.29ZM206.078 48.167V68H201.868V48.167H206.078ZM204 40.5706C204.645 40.5706 205.2 40.7438 205.666 41.0902C206.144 41.4365 206.383 42.0337 206.383 42.8818C206.383 43.7178 206.144 44.315 205.666 44.6734C205.2 45.0197 204.645 45.1929 204 45.1929C203.331 45.1929 202.764 45.0197 202.298 44.6734C201.844 44.315 201.617 43.7178 201.617 42.8818C201.617 42.0337 201.844 41.4365 202.298 41.0902C202.764 40.7438 203.331 40.5706 204 40.5706ZM222.209 47.7907C224.442 47.7907 226.18 48.37 227.422 49.5286C228.677 50.6752 229.304 52.5206 229.304 55.0646V68H225.093V55.8529C225.093 54.3122 224.777 53.1596 224.144 52.3952C223.511 51.6188 222.531 51.2306 221.206 51.2306C219.283 51.2306 217.945 51.8218 217.192 53.0043C216.452 54.1868 216.082 55.9007 216.082 58.1462V68H211.871V48.167H215.15L215.741 50.8544H215.974C216.404 50.1616 216.936 49.5943 217.569 49.1524C218.214 48.6985 218.93 48.3581 219.719 48.1311C220.519 47.9042 221.349 47.7907 222.209 47.7907ZM240.615 76.8147C237.927 76.8147 235.867 76.3309 234.434 75.3635C233.001 74.396 232.284 73.0404 232.284 71.2965C232.284 70.0783 232.666 69.0451 233.431 68.1971C234.195 67.361 235.288 66.7817 236.709 66.4592C236.172 66.2203 235.706 65.8501 235.312 65.3484C234.93 64.8348 234.738 64.2675 234.738 63.6464C234.738 62.9059 234.947 62.2728 235.366 61.7473C235.784 61.2218 236.411 60.7142 237.247 60.2245C236.208 59.7825 235.371 59.0659 234.738 58.0745C234.117 57.0712 233.807 55.8947 233.807 54.5451C233.807 53.1118 234.111 51.8935 234.721 50.8902C235.33 49.875 236.219 49.1046 237.39 48.579C238.561 48.0416 239.976 47.7728 241.636 47.7728C241.994 47.7728 242.383 47.7967 242.801 47.8445C243.231 47.8803 243.625 47.9281 243.983 47.9878C244.353 48.0356 244.634 48.0893 244.825 48.1491H251.687V50.4961L248.319 51.1231C248.641 51.577 248.898 52.0966 249.089 52.6818C249.28 53.2551 249.376 53.8822 249.376 54.563C249.376 56.6174 248.665 58.2358 247.244 59.4182C245.834 60.5887 243.888 61.174 241.403 61.174C240.806 61.1501 240.227 61.1023 239.665 61.0307C239.235 61.2934 238.907 61.5861 238.68 61.9086C238.453 62.2191 238.34 62.5714 238.34 62.9656C238.34 63.2881 238.453 63.5509 238.68 63.7539C238.907 63.945 239.241 64.0883 239.683 64.1839C240.137 64.2794 240.687 64.3272 241.332 64.3272H244.753C246.927 64.3272 248.588 64.7871 249.734 65.7068C250.881 66.6264 251.454 67.9761 251.454 69.7558C251.454 72.0132 250.522 73.751 248.659 74.9693C246.796 76.1996 244.114 76.8147 240.615 76.8147ZM240.776 73.8585C242.245 73.8585 243.481 73.7152 244.485 73.4286C245.488 73.1419 246.246 72.7298 246.76 72.1923C247.274 71.6668 247.53 71.0397 247.53 70.3112C247.53 69.6662 247.369 69.1705 247.047 68.8241C246.724 68.4778 246.241 68.2389 245.596 68.1075C244.951 67.9761 244.15 67.9104 243.195 67.9104H240.077C239.301 67.9104 238.614 68.0299 238.017 68.2687C237.42 68.5196 236.954 68.8779 236.62 69.3437C236.297 69.8095 236.136 70.3709 236.136 71.0278C236.136 71.9356 236.536 72.6343 237.336 73.124C238.148 73.6137 239.295 73.8585 240.776 73.8585ZM241.6 58.4149C242.831 58.4149 243.744 58.0805 244.341 57.4116C244.939 56.7308 245.237 55.7753 245.237 54.5451C245.237 53.2073 244.927 52.2041 244.306 51.5352C243.696 50.8663 242.789 50.5319 241.582 50.5319C240.4 50.5319 239.498 50.8723 238.877 51.5531C238.268 52.2339 237.963 53.2432 237.963 54.5809C237.963 55.7873 238.268 56.7308 238.877 57.4116C239.498 58.0805 240.406 58.4149 241.6 58.4149Z" fill="#F8F8FF"/>
</svg>
