<svg id="Capa_1" enable-background="new 0 0 511.979 511.979" height="512" viewBox="0 0 511.979 511.979" width="512" xmlns="http://www.w3.org/2000/svg"><g><path fill="#5956E9" d="m500.593 432.796-53.74-53.74c-2.929-2.929-7.678-2.929-10.606 0-2.929 2.929-2.929 7.678 0 10.606l53.74 53.74c9.333 9.333 9.333 24.52 0 33.854l-12.73 12.73c-9.334 9.333-24.521 9.333-33.854 0l-84.2-84.2c-4.522-4.522-7.013-10.535-7.013-16.931 0-6.394 2.49-12.403 7.013-16.923l12.732-12.732c4.517-4.521 10.526-7.011 16.92-7.011 6.396 0 12.408 2.491 16.931 7.013l9.25 9.25c2.929 2.929 7.678 2.929 10.606 0 2.929-2.929 2.929-7.678 0-10.606l-9.25-9.25c-7.355-7.355-17.135-11.407-27.537-11.407-2.931 0-5.81.333-8.601.96l-28.852-28.852c23.622-32.198 37.596-71.894 37.596-114.799.001-107.246-87.251-194.498-194.499-194.498-107.247 0-194.499 87.252-194.499 194.499 0 107.248 87.252 194.5 194.499 194.5 42.903 0 82.599-13.974 114.796-37.594l28.853 28.853c-.626 2.791-.959 5.668-.959 8.598 0 10.402 4.051 20.182 11.407 27.537l84.2 84.2c7.592 7.592 17.561 11.387 27.533 11.386 9.97-.001 19.943-3.796 27.533-11.386l12.73-12.73c15.182-15.182 15.182-39.885.001-55.067zm-485.593-238.297c0-98.976 80.523-179.499 179.499-179.499 98.977 0 179.5 80.523 179.5 179.499 0 98.977-80.523 179.5-179.5 179.5-98.976 0-179.499-80.523-179.499-179.5zm306.119 147.516c7.479-6.429 14.465-13.415 20.894-20.894l23.691 23.691c-1.537 1.142-3 2.405-4.378 3.784l-12.728 12.728c-1.381 1.379-2.645 2.844-3.787 4.383z"/><path fill="#5956E9" d="m194.5 40.432c-84.955 0-154.07 69.115-154.07 154.069 0 49.517 24.048 96.333 64.326 125.232 26.267 18.859 57.3 28.828 89.744 28.828 32.301 0 63.225-9.888 89.428-28.596 40.477-28.897 64.642-75.8 64.642-125.464-.001-84.954-69.116-154.069-154.07-154.069zm80.711 267.325c-23.645 16.881-51.555 25.804-80.712 25.804-29.286 0-57.293-8.995-80.998-26.014-36.363-26.09-58.072-68.35-58.072-113.046 0-76.683 62.387-139.069 139.07-139.069s139.07 62.386 139.07 139.069c0 44.83-21.816 87.168-58.358 113.256z"/><path fill="#5956E9" d="m203.709 90.14h-47.34c-4.801 0-9.278.989-13.31 2.94-10.552 5.112-17.081 15.529-17.04 27.16v42.27c0 4.142 3.358 7.5 7.5 7.5s7.5-3.358 7.5-7.5v-42.296c-.021-5.836 3.267-11.06 8.578-13.633 1.947-.943 4.289-1.441 6.772-1.441h47.34c35.444 0 64.28 28.414 64.28 63.34 0 34.92-28.836 63.33-64.28 63.33-5.25 0-14.663.034-25.18.09-4.126.022-7.46 3.374-7.46 7.5v35.4c0 4.99-4.06 9.05-9.05 9.05h-11.95c-4.99 0-9.05-4.06-9.05-9.05v-82.29c0-4.142-3.358-7.5-7.5-7.5s-7.5 3.358-7.5 7.5v82.29c0 13.261 10.789 24.05 24.05 24.05h11.95c13.261 0 24.05-10.789 24.05-24.05v-27.937c7.376-.034 13.695-.053 17.64-.053 43.715 0 79.28-35.139 79.28-78.33.001-43.197-35.564-78.34-79.28-78.34z"/><path fill="#5956E9" d="m173.498 199.676c1.405 1.391 3.301 2.17 5.277 2.17h.037c9.231-.046 19.092-.087 24.894-.087 18.554 0 34.229-15.242 34.229-33.283s-15.675-33.283-34.229-33.283h-25.073c-1.993 0-3.903.793-5.311 2.204-1.407 1.411-2.195 3.324-2.189 5.316 0 0 .108 44.684.142 51.67.01 1.99.809 3.893 2.223 5.293zm30.208-49.483c10.423 0 19.229 8.373 19.229 18.283 0 9.911-8.806 18.283-19.229 18.283-4.255 0-10.688.022-17.459.052-.029-8.887-.095-36.618-.095-36.618z"/></g></svg>