<?xml version="1.0" encoding="UTF-8" standalone="no"?>
<!-- Created with Inkscape (http://www.inkscape.org/) -->

<svg
   version="1.1"
   id="svg1002"
   xml:space="preserve"
   width="682.66669"
   height="682.66669"
   viewBox="0 0 682.66669 682.66669"
   xmlns="http://www.w3.org/2000/svg"
   xmlns:svg="http://www.w3.org/2000/svg"><defs
     id="defs1006"><clipPath
       clipPathUnits="userSpaceOnUse"
       id="clipPath1016"><path
         d="M 0,512 H 512 V 0 H 0 Z"
         id="path1014" /></clipPath></defs><g
     id="g1008"
     transform="matrix(1.3333333,0,0,-1.3333333,0,682.66667)"><g
       id="g1010"><g
         id="g1012"
         clip-path="url(#clipPath1016)"><g
           id="g1018"
           transform="translate(119.5044,304.834)"><path
             d="m 0,0 9.158,61.665 c 0.402,2.707 2.726,4.711 5.462,4.711 h 233.945 c 2.737,0 5.06,-2.004 5.462,-4.711 L 263.186,0 c 0.495,-3.336 -2.09,-6.333 -5.463,-6.333 H 5.462 C 2.089,-6.333 -0.496,-3.336 0,0 Z"
             style="fill:none;stroke:#fff;stroke-width:15;stroke-linecap:round;stroke-linejoin:round;stroke-miterlimit:10;stroke-dasharray:none;stroke-opacity:1"
             id="path1020" /></g><g
           id="g1022"
           transform="translate(148.9497,219.3486)"><path
             d="m 0,0 c 0,-14.487 -11.744,-26.23 -26.23,-26.23 -14.487,0 -26.231,11.743 -26.231,26.23 0,14.487 11.744,26.23 26.231,26.23 C -11.744,26.23 0,14.487 0,0 Z"
             style="fill:none;stroke:#fff;stroke-width:15;stroke-linecap:round;stroke-linejoin:round;stroke-miterlimit:10;stroke-dasharray:none;stroke-opacity:1"
             id="path1024" /></g><g
           id="g1026"
           transform="translate(415.5112,219.3486)"><path
             d="m 0,0 c 0,-14.487 -11.744,-26.23 -26.23,-26.23 -14.487,0 -26.231,11.743 -26.231,26.23 0,14.487 11.744,26.23 26.231,26.23 C -11.744,26.23 0,14.487 0,0 Z"
             style="fill:none;stroke:#fff;stroke-width:15;stroke-linecap:round;stroke-linejoin:round;stroke-miterlimit:10;stroke-dasharray:none;stroke-opacity:1"
             id="path1028" /></g><g
           id="g1030"
           transform="translate(325.3345,199.4072)"><path
             d="m 0,0 h -138.056 c -5.083,0 -9.203,4.121 -9.203,9.204 v 20.69 c 0,5.083 4.12,9.204 9.203,9.204 H 0 c 5.083,0 9.204,-4.121 9.204,-9.204 V 9.204 C 9.204,4.121 5.083,0 0,0 Z"
             style="fill:none;stroke:#fff;stroke-width:15;stroke-linecap:round;stroke-linejoin:round;stroke-miterlimit:10;stroke-dasharray:none;stroke-opacity:1"
             id="path1032" /></g><g
           id="g1034"
           transform="translate(53.377,109.4956)"><path
             d="m 0,0 v -54.741 c 0,-7.625 6.181,-13.805 13.806,-13.805 h 38.195 c 7.625,0 13.806,6.18 13.806,13.805 V 0 Z"
             style="fill:none;stroke:#fff;stroke-width:15;stroke-linecap:round;stroke-linejoin:round;stroke-miterlimit:10;stroke-dasharray:none;stroke-opacity:1"
             id="path1036" /></g><g
           id="g1038"
           transform="translate(392.5371,109.4956)"><path
             d="m 0,0 v -54.741 c 0,-7.625 6.181,-13.805 13.806,-13.805 h 38.195 c 7.625,0 13.806,6.18 13.806,13.805 V 0 Z"
             style="fill:none;stroke:#fff;stroke-width:15;stroke-linecap:round;stroke-linejoin:round;stroke-miterlimit:10;stroke-dasharray:none;stroke-opacity:1"
             id="path1040" /></g><g
           id="g1042"
           transform="translate(483.5088,169.3198)"><path
             d="m 0,0 -3.6,79.518 c -0.511,11.307 -9.828,20.211 -21.147,20.211 h -405.524 c -11.319,0 -20.635,-8.904 -21.147,-20.211 L -455.018,0 Z"
             style="fill:none;stroke:#fff;stroke-width:15;stroke-linecap:round;stroke-linejoin:round;stroke-miterlimit:10;stroke-dasharray:36, 35, 800, 0;stroke-dashoffset:0;stroke-opacity:1"
             id="path1044" /></g><g
           id="g1046"
           transform="translate(75.2861,269.0488)"><path
             d="m 0,0 17.846,104.807 c 2.636,15.482 16.051,26.806 31.756,26.806 h 252.419 c 15.704,0 29.12,-11.324 31.756,-26.806 L 351.623,0 Z"
             style="fill:none;stroke:#fff;stroke-width:15;stroke-linecap:round;stroke-linejoin:round;stroke-miterlimit:10;stroke-dasharray:55, 35, 800, 0;stroke-dashoffset:0;stroke-opacity:1"
             id="path1048" /></g><g
           id="g1050"
           transform="translate(185.3828,446.1895)"><path
             d="M 0,0 H 24.747"
             style="fill:none;stroke:#fff;stroke-width:15;stroke-linecap:round;stroke-linejoin:round;stroke-miterlimit:10;stroke-dasharray:none;stroke-opacity:1"
             id="path1052" /></g><g
           id="g1054"
           transform="translate(197.7559,446.1895)"><path
             d="M 0,0 V -20"
             style="fill:none;stroke:#fff;stroke-width:15;stroke-linecap:round;stroke-linejoin:round;stroke-miterlimit:10;stroke-dasharray:none;stroke-opacity:1"
             id="path1056" /></g><g
           id="g1058"
           transform="translate(253.0767,426.1895)"><path
             d="M 0,0 -12.056,20 -24.112,0"
             style="fill:none;stroke:#fff;stroke-width:15;stroke-linecap:round;stroke-linejoin:round;stroke-miterlimit:10;stroke-dasharray:none;stroke-opacity:1"
             id="path1060" /></g><g
           id="g1062"
           transform="translate(302.8618,446.1895)"><path
             d="M 0,0 -24.513,-20"
             style="fill:none;stroke:#fff;stroke-width:15;stroke-linecap:round;stroke-linejoin:round;stroke-miterlimit:10;stroke-dasharray:none;stroke-opacity:1"
             id="path1064" /></g><g
           id="g1066"
           transform="translate(302.8618,426.1895)"><path
             d="M 0,0 -24.513,20"
             style="fill:none;stroke:#fff;stroke-width:15;stroke-linecap:round;stroke-linejoin:round;stroke-miterlimit:10;stroke-dasharray:none;stroke-opacity:1"
             id="path1068" /></g><g
           id="g1070"
           transform="translate(326.6172,446.1895)"><path
             d="M 0,0 V -20"
             style="fill:none;stroke:#fff;stroke-width:15;stroke-linecap:round;stroke-linejoin:round;stroke-miterlimit:10;stroke-dasharray:none;stroke-opacity:1"
             id="path1072" /></g><g
           id="g1074"
           transform="translate(355.1406,400.6616)"><path
             d="m 0,0 v 50.192 c 0,11.155 -9.042,20.197 -20.197,20.197 h -157.887 c -11.155,0 -20.197,-9.042 -20.197,-20.197 V 0 Z"
             style="fill:none;stroke:#fff;stroke-width:15;stroke-linecap:round;stroke-linejoin:round;stroke-miterlimit:10;stroke-dasharray:none;stroke-opacity:1"
             id="path1076" /></g><g
           id="g1078"
           transform="translate(327.9321,87.0718)"><path
             d="m 0,0 h -143.864 c -3.075,0 -5.568,2.493 -5.568,5.568 v 40.864 c 0,3.075 2.493,5.568 5.568,5.568 L 0,52 c 3.075,0 5.568,-2.493 5.568,-5.568 V 5.568 C 5.568,2.493 3.075,0 0,0 Z"
             style="fill:none;stroke:#fff;stroke-width:15;stroke-linecap:round;stroke-linejoin:round;stroke-miterlimit:10;stroke-dasharray:none;stroke-opacity:1"
             id="path1080" /></g><g
           id="g1082"
           transform="translate(492.5,169.3198)"><path
             d="m 0,0 h -473 c -6.627,0 -12,-5.373 -12,-12 v -35.824 c 0,-6.628 5.373,-12 12,-12 h 159 v 24.008 c 0,3.075 2.493,5.568 5.567,5.568 h 143.866 c 3.074,0 5.567,-2.493 5.567,-5.568 V -59.824 H 0 c 6.627,0 12,5.372 12,12 L 12,-12 C 12,-5.373 6.627,0 0,0 Z"
             style="fill:none;stroke:#fff;stroke-width:15;stroke-linecap:round;stroke-linejoin:round;stroke-miterlimit:10;stroke-dasharray:none;stroke-opacity:1"
             id="path1084" /></g></g></g></g></svg>
