<svg clip-rule="evenodd" fill-rule="evenodd" height="512" image-rendering="optimizeQuality" shape-rendering="geometricPrecision" text-rendering="geometricPrecision" viewBox="0 0 6.82666 6.82666" width="512" xmlns="http://www.w3.org/2000/svg"><g id="Layer_x0020_1"><g id="_462026848"><path fill="#fff" id="_462029592" d="m.982787 3.41327 2.43048 2.43061 2.43061-2.43061-2.43061-2.43048-2.43048 2.43048zm2.43048 2.60026c-.0179331 0-.0358858-.00683465-.0496811-.0205039l-2.52994-2.52996c-.0274646-.0274646-.0274764-.0720157-.00001181-.0994803l2.52996-2.52995c.0274646-.0274606.0720118-.0274606.0994764 0l2.52997 2.52995c.0274606.0274606.0274528.0720197-.00000787.0994803l-2.52994 2.52996c-.013815.0136693-.0317559.0205039-.049815.0205039z"/><path fill="#fff" id="_462028472" d="m3.41327.483823c-.0750551 0-.145614.0291732-.198465.0820236l-2.64895 2.64896c-.109496.109484-.1095.287563-.00001575.397047l2.64898 2.64896c.109465.109484.287539.109484.397024 0l2.64897-2.64896c.109492-.10948.109476-.287559-.00000394-.397039l-2.64896-2.64896c-.0528386-.0528504-.123394-.0820236-.198579-.0820236zm0 5.99962c-.107874 0-.215799-.0410118-.297941-.123157l-2.64894-2.64896c-.164307-.164283-.164307-.431705-.00001968-.595992l2.64896-2.64896c.0794764-.0793386.18528-.123157.297937-.123157.112787 0 .218602.0438189.298059.123157h.00001968l2.64894 2.64896c.164307.164287.164291.431713 0 .596l-2.64894 2.64896c-.0821378.0821457-.190059.123157-.298075.123157z"/><path fill="#fff" id="_462029312" d="m3.42378 4.74477c-.457606 0-.829996-.372268-.829996-.829976 0-.374953.25302-.704622.615154-.801657.0375984-.0100079.0760433.0122087.0861772.0496732.0100276.0375945-.0122087.0761654-.0498031.0861732-.30072.0805551-.510921.354449-.510921.665811 0 .380201.309287.689366.689366.689366.342976 0 .636638-.255827.682902-.595016.00538583-.0385709.0407638-.0654213.0792126-.0601732.0384646.00524803.0654213.0406417.0601732.0790906-.0557598.408642-.409378.716709-.822264.716709z"/><path fill="#fff" id="_462028976" d="m3.40511 2.77053c-.0593189 0-.107677.0482126-.107677.107531l.00002362.535701c0 .145854.118614.264488.264472.264488h.205791c.111307 0 .207728.0399134.286457.118638l.256453.256441c.0418504.0419882.110075.0419882.152063 0 .0201535-.0201417.031248-.0471142.031248-.0760394 0-.0288031-.0111063-.0559016-.031248-.0760394l-.360673-.360673c-.0520945-.0521181-.113268-.0773858-.186984-.0773858h-.332106c-.0388071 0-.070311-.0314882-.070311-.0703031l.00000787-.514827c0-.0593189-.0482205-.107531-.107539-.107531h.00002362zm.981563 1.45478c-.0636063 0-.127201-.0241654-.175535-.0725l-.256421-.256437c-.052126-.052122-.113283-.0775079-.187004-.0775079h-.205764c-.223382 0-.405122-.18174-.405122-.405098l.00002362-.535701c0-.136823.111291-.248138.248236-.248138.136839 0 .248138.111315.248138.248138l.00000787.444524h.261827c.111307 0 .207713.0399134.286437.118638l.360575.360551c.0467441.046748.0724764.109118.0724764.175516 0 .0664016-.0257559.128768-.0725.175516-.048311.0483346-.111925.0725-.175374.0725z"/><path fill="#fff" id="_462028248" d="m3.40511 2.2225c-.112433 0-.203854.0912953-.203854.203709 0 .112291.0914173.203713.203831.203713.112287 0 .203709-.0914173.203709-.203713.00000394-.112413-.0914213-.203709-.203685-.203709zm0 .548028c-.189929 0-.344465-.154402-.344465-.344319 0-.189913.154524-.344319.344441-.344319.189819 0 .344315.154406.344315.344319.00000394.189913-.15452.344319-.344291.344319z"/></g></g></svg>